<?xml version="1.0" encoding="utf-8"?>
<svg id="master-artboard" viewBox="0 0 1302.1656494140625 556.5606079101562" version="1.1" xmlns="http://www.w3.org/2000/svg" x="0px" y="0px" width="1302.1656494140625px" height="556.5606079101562px" enable-background="new 0 0 1400 980" xmlns:xlink="http://www.w3.org/1999/xlink"><rect id="ee-background" x="0" y="0" width="1302.1656494140625" height="556.5606079101562" style="fill: white; fill-opacity: 0; pointer-events: none;"/>
<defs>
		<path d="M 0 0 H 1400 V 980 H 0 V 0 Z" id="SVGID_1_"/>
	</defs><clipPath id="SVGID_2_">
		<use overflow="visible" xlink:href="#SVGID_1_"/>
	</clipPath><path fill="#8E8E8E" d="M391.4,481.4c3.2-15.6,3.2-52.8,1.2-109.1c-2-56.4-26-50-34.8-54.8c-8.8-4.8-11.2-14.8-10.8-20.4&#10;&#9;&#9;&#9;c0.4-5.6,8-17.6,6.8-37.2c-1.2-19.6-14-26.8-22.8-31.2c-8.8-4.4-26.8-0.4-35.6,3.6c-8.8,4-7.2,11.6-10,18.8&#10;&#9;&#9;&#9;c-2.8,7.2-3.2,14.8-3.2,14.8s2.8,8.8-0.4,11.6s-4.4-0.4-7.6-0.8c-3.2-0.4-16,2-22.8,7.2c-6.8,5.2-12,11.6-12,11.6s-8,4.8-12.8,0&#10;&#9;&#9;&#9;c-4.8-4.8-6.8-1.2-6.8-1.2s5.6,8.8,4.8,22.8c-0.8,14,5.2,21.6,5.2,21.6l-19.2,13.2c0,0,22.4,45.2,30.8,54.8&#10;&#9;&#9;&#9;c8.4,9.6,21.2,6.4,21.2,6.4s0,11.2-5.6,40s-9.6,95.2-9.6,95.2l24.8-2.8c0,0-0.8,50.8-3.6,68.4c-2.8,17.6,5.2,102.8,7.6,118.7&#10;&#9;&#9;&#9;c2.4,16,14.8,69.2,14.8,69.2h28.4c0,0,7.6-67.6,7.6-66.4c0,1.2,16.8,63.6,16.8,63.6H379c0,0,5.2-4,4.8-13.2&#10;&#9;&#9;&#9;c-0.4-9.2-3.6-72.8-4.8-103.5c-1.2-30.8-15.2-57.2-16.8-64.8c-1.6-7.6,8.4-33.6,8.4-33.6s10.4,1.2,13.2-2&#10;&#9;&#9;&#9;c2.8-3.2-4.4-46.8-3.2-59.2C381.8,510.1,388.2,497,391.4,481.4z M306,319.1c-2.1,8-1,8-3.7,13.8c-2.7,5.8-22.2,20.2-24.7,26.5&#10;&#9;&#9;&#9;c-2.4,6.4-11.4,18.6-11.4,18.6s-3.2,0.5-7.4-15.9c-4.2-16.4-13.8-21.2-13.3-28.6s5.3-13.8,3.2-26c0,0,8,3.2,18,0&#10;&#9;&#9;&#9;c10.1-3.2,15.4-8,15.4-8s2.1,2.8,3.7,9.4c1.6,6.5,9,4.9,13.8,3.9C304.4,311.6,308.1,311.1,306,319.1z" transform="matrix(0.7343359589576721, 0, 0, 0.7343359589576721, 109.87083435058594, -125.72756958007812)"/><path d="M 729.099976 433.600006 H 1023.699982 V 454.900005 H 729.099976 V 433.600006 Z" fill="#80949B" transform="matrix(0.7343359589576721, 0, 0, 0.7343359589576721, 109.87083435058594, -125.72756958007812)"/><path fill="#595959" d="M395.2,320c0,0,0-9.5-5.3-15.4s-17.2-17.2-16.6-33.8c0.6-16.6,5.3-32.6,17.8-37.9c12.4-5.3,29-7.1,35.6,0&#10;&#9;&#9;&#9;c6.5,7.1,17.8,13,15.4,16.6c-2.4,3.6,0.1,9.5,0.3,16.6c0.3,7.1,1.5,17.2,0,28.4c-1.5,11.3-3.9,16-8,16s-5,13,8.8,18.4&#10;&#9;&#9;&#9;c13.8,5.3,59.4,5.9,70,4.1c10.7-1.8,19-7.1,26.1-21.9s19-45.6,20.7-51.5c1.8-5.9,3.6-26.1,3.6-26.1l32.6,1.2v27.8&#10;&#9;&#9;&#9;c0,0,3.6,15.2,0,18.5s-10.1,15.2-11.3,17c-1.2,1.8-10.7,1.2-10.7,1.2s-7.1-0.6-10.1,5.3c-3,5.9-10.7,38.5-19.6,50.4&#10;&#9;&#9;&#9;c-8.9,11.9-39.7,14.2-45,14.8c-5.3,0.6-32.6,7.7-32.6,7.7s-6.5,35.6,1.2,61.6c7.7,26.1,13,53.9,13,53.9H373.3&#10;&#9;&#9;&#9;c0,0-8.3-54.5-9.5-63.4c-1.2-8.9-3.6-11.9-3.6-11.9s-13.6,50.4-16.6,58.1c-3,7.7-10.7,17.2-10.7,17.2l-10.7-3l7.6-81.2&#10;&#9;&#9;&#9;c0,0,8.4-47.4,13.7-56.3S369.7,325.9,395.2,320z" transform="matrix(0.7343359589576721, 0, 0, 0.7343359589576721, 109.87083435058594, -125.72756958007812)"/><path fill="#90B1BA" d="M976,316.2V305c-2.1-0.2-3.7-2-3.7-4.2v-7.2c0-2.3,1.9-4.2,4.2-4.2h14.4c2.3,0,4.2,1.9,4.2,4.2v7.2&#10;&#9;&#9;&#9;&#9;c0,2.2-1.6,3.9-3.7,4.2v11.2c7.8,3.1,13.3,10.7,13.3,19.6v93.7c0,2.1-1.7,3.8-3.8,3.8h-34.5c-2.1,0-3.8-1.7-3.8-3.8v-93.7&#10;&#9;&#9;&#9;&#9;C962.6,326.8,968.2,319.2,976,316.2z" transform="matrix(0.7343359589576721, 0, 0, 0.7343359589576721, 109.87083435058594, -125.72756958007812)"/><path fill="#90B1BA" d="M904.5,316.2V305c-2.1-0.2-3.7-2-3.7-4.2v-7.2c0-2.3,1.9-4.2,4.2-4.2h14.4c2.3,0,4.2,1.9,4.2,4.2v7.2&#10;&#9;&#9;&#9;&#9;c0,2.2-1.6,3.9-3.7,4.2v11.2c7.8,3.1,13.3,10.7,13.3,19.6v93.7c0,2.1-1.7,3.8-3.8,3.8h-34.5c-2.1,0-3.8-1.7-3.8-3.8v-93.7&#10;&#9;&#9;&#9;&#9;C891.1,326.8,896.7,319.2,904.5,316.2z" transform="matrix(0.7343359589576721, 0, 0, 0.7343359589576721, 109.87083435058594, -125.72756958007812)"/><path fill="#90B1BA" d="M761.4,316.2V305c-2.1-0.2-3.7-2-3.7-4.2v-7.2c0-2.3,1.9-4.2,4.2-4.2h14.4c2.3,0,4.2,1.9,4.2,4.2v7.2&#10;&#9;&#9;&#9;&#9;c0,2.2-1.6,3.9-3.7,4.2v11.2c7.8,3.1,13.3,10.7,13.3,19.6v93.7c0,2.1-1.7,3.8-3.8,3.8h-34.5c-2.1,0-3.8-1.7-3.8-3.8v-93.7&#10;&#9;&#9;&#9;&#9;C748.1,326.8,753.6,319.2,761.4,316.2z" transform="matrix(0.7343359589576721, 0, 0, 0.7343359589576721, 109.87083435058594, -125.72756958007812)"/><path fill="#595959" d="M158.6,252.4c0,0,4.1-5.7-2.3-11.3s-21.9-14.3-30.9-14.3s-24.9,6-32.4,16.6c-7.5,10.6-4.9,27.9-3.4,35.8&#10;&#9;&#9;&#9;c1.5,7.9,3.8,17.3,1.5,21.5c-2.3,4.1-6,10.6-17.3,15.1c-11.3,4.5-31.3,5.7-32.4,33.5c-1.1,27.9-7.2,108.2-2.3,124&#10;&#9;&#9;&#9;s10.6,27.5,10.6,27.5s0.8,55.8-0.8,64.1c-1.5,8.3,15.5,16.6,19.2,15.8c3.8-0.8,4.9,40,3.8,52.8S58.4,675,56.9,688.9&#10;&#9;&#9;&#9;c-1.5,13.9-4.1,80.3-3.4,91.2c0.8,10.9,0.8,28.3,0.8,28.3h80.7c0,0,18.8-46,19.2-62.6c0.4-16.6,11.7-72.4,10.2-99.1&#10;&#9;&#9;&#9;c-1.5-26.8,0.1-85.6,0.1-85.6h18.7c0,0-0.4-61.1-8.3-80.7c-7.9-19.6-5.3-38.5-5.3-38.5s47.1-5.3,57.3-7.9&#10;&#9;&#9;&#9;c10.2-2.6,21.9-6.8,21.9-6.8l-3.4-21.1c0,0,14.3,0.8,18.8-1.1s14.3-6,18.8-6.4c4.5-0.4,7.2-3.8,6-6s-3-9-1.9-11.7&#10;&#9;&#9;&#9;c1.1-2.6,8.7-6.8,13.2-10.9c4.5-4.1,6.8-22.6,5.7-26.4c0,0-10.9-5.7-19.2-6.8c0,0-7.5,6.8-10.2,17.7c-2.6,10.9,1.1,18.8,1.1,18.8&#10;&#9;&#9;&#9;s-2.3,3-13.6,4.1c-11.3,1.1-20,11.3-31.7,14.7c-11.7,3.4-38.5,15.5-47.1,15.1c-8.7-0.4-12.4-3-15.8-12.1&#10;&#9;&#9;&#9;c-3.4-9-11.3-15.5-12.8-18.8c-1.5-3.4-19.2-32.4-22.6-39.6c-3.4-7.2-8.7-13.2-8.7-17.7s7.5-2.3,12.4-2.6&#10;&#9;&#9;&#9;c4.9-0.4,9.4-5.7,10.9-10.9c1.5-5.3,3.4-6.8,6.8-8.3c3.4-1.5,3.8-2.3,1.1-7.9c-2.6-5.7-2.3-8.3,0.8-11.7&#10;&#9;&#9;&#9;C160.5,274.3,160.9,263.7,158.6,252.4z" transform="matrix(0.7343359589576721, 0, 0, 0.7343359589576721, 109.87083435058594, -125.72756958007812)"/><path fill="#8E8E8E" d="M653.1,299.5c3.2,1.3,4.4,12-5.7,19.6c-10.1,7.6-29.7,48.6-31.6,60.6c-1.9,12,5.7,67,5.1,70.8&#10;&#9;&#9;&#9;c-0.6,3.8-29.7,48.6-32.9,52.4c-3.2,3.8-12,8.2-13.9,14.5s2.5,19.6,5.1,24.6c2.5,5.1,12.6,4.4,17.7,4.4c5.1,0,1.9-6.9,0.6-11.4&#10;&#9;&#9;&#9;s0.6-9.5,2.5-17.1c1.9-7.6,22.7-37.9,24-27.8c1.3,10.1,3.2,43-0.6,63.2c-3.8,20.2-2.5,87.8,1.3,122.6s-1.3,65.7-3.2,86.5&#10;&#9;&#9;&#9;s-1.9,32.9-8.8,50.5c-6.9,17.7-32.2,25.9-43.6,31s-5.7,9.5-5.7,9.5s24,0,32.9,0c8.8,0,18.3-8.2,18.3-8.2v8.2h52.2l11-4.4l4.4,4.4&#10;&#9;&#9;&#9;h25.9l-1.3-31l8-3.2c4.2-36.6-4.8-109.3-12.4-139.6c-7.6-30.3-5.1-111.2,0-127c5.1-15.8,8.8-48.6-0.6-75.8s-10.7-44.2-8.2-43&#10;&#9;&#9;&#9;c2.5,1.3,12.6,1.9,14.5-7.6s3.2-30.3,5.7-46.7c2.5-16.4,0.6-63.2-8.2-73.9c-8.8-10.7-17.1-25.9-17.1-30.3c0-4.4,7.6-18.3,7.6-26.5&#10;&#9;&#9;&#9;s-3.2-36.6-31.6-37.3s-46.1,19.6-46.7,22.1c-0.6,2.5,6.3,4.4,6.3,4.4s3.5,17,0.9,24.9c-2.6,7.9-4.4,11-4.4,11s3.1,1.3,5.7,0.9&#10;&#9;&#9;&#9;c2.6-0.4,1.8,7,2.2,9.3c0.4,2.2,2.2,2.2,3.1,4.4c0.9,2.2,0,8.8,5.3,10.6C642.1,301,653.1,299.5,653.1,299.5z" transform="matrix(0.7343359589576721, 0, 0, 0.7343359589576721, 109.87083435058594, -125.72756958007812)"/><path fill="#8E8E8E" d="M1013.5,435.2c9.3-19.6,5.7-24.2,0-36.6s-37.1-56.2-47.4-68.1c-10.3-11.9-27.3-16.5-26.3-22.2&#10;&#9;&#9;&#9;c1-5.7,5.2-14.4,9.3-21.7c4.1-7.2,8.8-18.6,3.6-33c-5.2-14.4-13.9-23.7-23.2-28.4c-9.3-4.6-33.5,3.6-43.3,9.3&#10;&#9;&#9;&#9;c-9.8,5.7-7.2,19.1-7.2,19.1s2.1,22.2-1,27.3c-3.1,5.2-3.6,8.8,0,11.3c3.6,2.6,0,0,2.6,5.7c2.6,5.7,0,11.9,5.7,16.5&#10;&#9;&#9;&#9;c5.7,4.6,15,3.6,14.4,8.8c-0.5,5.2-19.6,27.8-24.2,35.6c-4.6,7.7-11.3,27.3-12.9,41.8c-1.5,14.4,2.1,63.4,2.1,63.4&#10;&#9;&#9;&#9;s-3.6,31.5-4.1,36.6c-0.5,5.2,10.8,10.8,8.8,23.5c-2.1,12.7-5.2,36.3-11.9,45.1c-6.7,8.8-30.4,56.7-37.1,75.8&#10;&#9;&#9;&#9;c-6.7,19.1,9.3,37.6,23.7,49.5c14.4,11.9,37.6,22.7,38.7,33.5c1,10.8,2.1,87.7,2.1,87.7s8.8,5.7,7.7,10.3c-1,4.6-6.2,6.7-6.2,6.7&#10;&#9;&#9;&#9;c-21.7,1-38.7,12.4-38.7,12.4h94.9c0,0,0,0,0-4.6s-3.1-21.7-3.1-21.7s13.9-8.8,27.3-18.6c13.4-9.8,19.6-22.7,19.1-27.8&#10;&#9;&#9;&#9;c-0.5-5.2,6.7-15,5.2-21.1c-1.5-6.2-19.1-16.5-34-28.9c-15-12.4-22.7-24.2-21.7-50.5c1-26.3,0-83.5,2.1-93.8&#10;&#9;&#9;&#9;c2.1-10.3,13.4-23.2,16-40.2c2.6-17-5.2-23.2-3.1-31.5C953.1,498.1,1004.2,454.8,1013.5,435.2z M944.4,480.9c0,0-3-12.5-3-17.3&#10;&#9;&#9;&#9;s2.4-20.8,7.7-32.8c5.4-11.9,18.5-34.5,18.5-34.5s8.9,12.5,16.7,16.7c0,0-4.8,7.7-16.7,31.6C955.7,468.4,944.4,480.9,944.4,480.9z&#10;&#9;&#9;&#9;" transform="matrix(0.7343359589576721, 0, 0, 0.7343359589576721, 109.87083435058594, -125.72756958007812)"/><path fill="#595959" d="M749.4,522.5c1.2,12.4-6,56-3.2,59.2c2.8,3.2,13.2,2,13.2,2s10,26,8.4,33.6c-1.6,7.6-15.6,34-16.8,64.8&#10;&#9;&#9;&#9;c-1.2,30.8-4.4,94.4-4.8,103.5c-0.4,9.2,4.8,13.2,4.8,13.2h35.2c0,0,16.8-62.4,16.8-63.6c0-1.2,7.6,66.4,7.6,66.4H839&#10;&#9;&#9;&#9;c0,0,12.4-53.2,14.8-69.2c2.4-16,10.4-101.2,7.6-118.7c-2.8-17.6-3.6-68.4-3.6-68.4l24.8,2.8c0,0-4-66.4-9.6-95.2&#10;&#9;&#9;&#9;c-5.6-28.8-5.6-40-5.6-40s12.8,3.2,21.2-6.4c8.4-9.6,30.8-54.8,30.8-54.8l-19.2-13.2c0,0,6-7.6,5.2-21.6&#10;&#9;&#9;&#9;c-0.8-14,4.8-22.8,4.8-22.8s-2-3.6-6.8,1.2c-4.8,4.8-12.8,0-12.8,0s-5.2-6.4-12-11.6c-6.8-5.2-19.6-7.6-22.8-7.2&#10;&#9;&#9;&#9;c-3.2,0.4-4.4,3.6-7.6,0.8c-3.2-2.8-0.4-11.6-0.4-11.6s-0.4-7.6-3.2-14.8c-2.8-7.2-1.2-14.8-10-18.8c-8.8-4-26.8-8-35.6-3.6&#10;&#9;&#9;&#9;c-8.8,4.4-21.6,11.6-22.8,31.2c-1.2,19.6,6.4,31.6,6.8,37.2c0.4,5.6-2,15.6-10.8,20.4c-8.8,4.8-32.8-1.6-34.8,54.8&#10;&#9;&#9;&#9;c-2,56.4-2,93.6,1.2,109.1C741.8,497,748.2,510.1,749.4,522.5z M830.4,312.7c4.8,1.1,12.2,2.7,13.8-3.9c1.6-6.5,3.7-9.4,3.7-9.4&#10;&#9;&#9;&#9;s5.3,4.8,15.4,8c10.1,3.2,18,0,18,0c-2.1,12.2,2.7,18.6,3.2,26c0.5,7.4-9,12.2-13.3,28.6c-4.2,16.4-7.4,15.9-7.4,15.9&#10;&#9;&#9;&#9;s-9-12.2-11.4-18.6c-2.4-6.4-22-20.7-24.7-26.5c-2.7-5.8-1.6-5.8-3.7-13.8C821.9,311.1,825.6,311.6,830.4,312.7z" transform="matrix(0.7343359589576721, 0, 0, 0.7343359589576721, 109.87083435058594, -125.72756958007812)"/><path fill="#595959" d="M969.7,522.5c1.2,12.4-6,56-3.2,59.2c2.8,3.2,13.2,2,13.2,2s10,26,8.4,33.6c-1.6,7.6-15.6,34-16.8,64.8&#10;&#9;&#9;&#9;c-1.2,30.8-4.4,94.4-4.8,103.5c-0.4,9.2,4.8,13.2,4.8,13.2h35.2c0,0,16.8-62.4,16.8-63.6c0-1.2,7.6,66.4,7.6,66.4h28.4&#10;&#9;&#9;&#9;c0,0,12.4-53.2,14.8-69.2c2.4-16,10.4-101.2,7.6-118.7c-2.8-17.6-3.6-68.4-3.6-68.4l24.8,2.8c0,0-4-66.4-9.6-95.2&#10;&#9;&#9;&#9;c-5.6-28.8-5.6-40-5.6-40s12.8,3.2,21.2-6.4c8.4-9.6,30.8-54.8,30.8-54.8l-19.2-13.2c0,0,6-7.6,5.2-21.6&#10;&#9;&#9;&#9;c-0.8-14,4.8-22.8,4.8-22.8s-2-3.6-6.8,1.2c-4.8,4.8-12.8,0-12.8,0s-5.2-6.4-12-11.6c-6.8-5.2-19.6-7.6-22.8-7.2&#10;&#9;&#9;&#9;c-3.2,0.4-4.4,3.6-7.6,0.8s-0.4-11.6-0.4-11.6s-0.4-7.6-3.2-14.8c-2.8-7.2-1.2-14.8-10-18.8c-8.8-4-26.8-8-35.6-3.6&#10;&#9;&#9;&#9;c-8.8,4.4-21.6,11.6-22.8,31.2c-1.2,19.6,6.4,31.6,6.8,37.2c0.4,5.6-2,15.6-10.8,20.4c-8.8,4.8-32.8-1.6-34.8,54.8&#10;&#9;&#9;&#9;c-2,56.4-2,93.6,1.2,109.1C962.1,497,968.5,510.1,969.7,522.5z M1050.7,312.7c4.8,1.1,12.2,2.7,13.8-3.9c1.6-6.5,3.7-9.4,3.7-9.4&#10;&#9;&#9;&#9;s5.3,4.8,15.4,8c10.1,3.2,18,0,18,0c-2.1,12.2,2.7,18.6,3.2,26c0.5,7.4-9,12.2-13.3,28.6c-4.2,16.4-7.4,15.9-7.4,15.9&#10;&#9;&#9;&#9;s-9-12.2-11.4-18.6c-2.4-6.4-22-20.7-24.7-26.5c-2.7-5.8-1.6-5.8-3.7-13.8C1042.2,311.1,1045.9,311.6,1050.7,312.7z" transform="matrix(0.7343359589576721, 0, 0, 0.7343359589576721, 109.87083435058594, -125.72756958007812)"/><path fill="#8E8E8E" d="M1290.2,435.2c9.3-19.6,5.7-24.2,0-36.6s-37.1-56.2-47.4-68.1c-10.3-11.9-27.3-16.5-26.3-22.2&#10;&#9;&#9;&#9;c1-5.7,5.2-14.4,9.3-21.7c4.1-7.2,8.8-18.6,3.6-33c-5.2-14.4-13.9-23.7-23.2-28.4c-9.3-4.6-33.5,3.6-43.3,9.3&#10;&#9;&#9;&#9;c-9.8,5.7-7.2,19.1-7.2,19.1s2.1,22.2-1,27.3c-3.1,5.2-3.6,8.8,0,11.3c3.6,2.6,0,0,2.6,5.7c2.6,5.7,0,11.9,5.7,16.5&#10;&#9;&#9;&#9;c5.7,4.6,15,3.6,14.4,8.8c-0.5,5.2-19.6,27.8-24.2,35.6c-4.6,7.7-11.3,27.3-12.9,41.8s2.1,63.4,2.1,63.4s-3.6,31.5-4.1,36.6&#10;&#9;&#9;&#9;c-0.5,5.2,10.8,10.8,8.8,23.5c-2.1,12.7-5.2,36.3-11.9,45.1c-6.7,8.8-30.4,56.7-37.1,75.8c-6.7,19.1,9.3,37.6,23.7,49.5&#10;&#9;&#9;&#9;c14.4,11.9,37.6,22.7,38.7,33.5c1,10.8,2.1,87.7,2.1,87.7s8.8,5.7,7.7,10.3c-1,4.6-6.2,6.7-6.2,6.7c-21.7,1-38.7,12.4-38.7,12.4&#10;&#9;&#9;&#9;h94.9c0,0,0,0,0-4.6s-3.1-21.7-3.1-21.7s13.9-8.8,27.3-18.6c13.4-9.8,19.6-22.7,19.1-27.8c-0.5-5.2,6.7-15,5.2-21.1&#10;&#9;&#9;&#9;s-19.1-16.5-34-28.9c-15-12.4-22.7-24.2-21.7-50.5c1-26.3,0-83.5,2.1-93.8c2.1-10.3,13.4-23.2,16-40.2c2.6-17-5.2-23.2-3.1-31.5&#10;&#9;&#9;&#9;C1229.9,498.1,1281,454.8,1290.2,435.2z M1221.2,480.9c0,0-3-12.5-3-17.3s2.4-20.8,7.7-32.8c5.4-11.9,18.5-34.5,18.5-34.5&#10;&#9;&#9;&#9;s8.9,12.5,16.7,16.7c0,0-4.8,7.7-16.7,31.6C1232.5,468.4,1221.2,480.9,1221.2,480.9z" transform="matrix(0.7343359589576721, 0, 0, 0.7343359589576721, 109.87083435058594, -125.72756958007812)"/><path d="M -90 479 H 1117.5 V 853.5 H -90 V 479 Z" fill="#7E5536" transform="matrix(0.7343359589576721, 0, 0, 0.7343359589576721, 109.87083435058594, -125.72756958007812)"/><path d="M -104.300003 462.5 H 1131.699997 V 495.5 H -104.300003 V 462.5 Z" fill="#594A42" transform="matrix(0.7343359589576721, 0, 0, 0.7343359589576721, 109.87083435058594, -125.72756958007812)"/><g transform="matrix(0.7343359589576721, 0, 0, 0.7343359589576721, 109.87083435058594, -125.72756958007812)">
				<path d="M 746.700012 517.599976 H 1056.700012 V 776.399963 H 746.700012 V 517.599976 Z" fill="#70492E"/>
				<path d="M 746.7000122070312 517.5999755859375 L 1056.699951171875 517.5999755859375 L 1056.699951171875 776.4000244140625 L 1046.699951171875 776.4000244140625 L 1046.699951171875 526.7999877929688 L 746.7000122070312 526.7999877929688 Z" fill="#664128"/>
				<path d="M 756.7000122070312 767.2000122070312 L 1056.699951171875 767.2000122070312 L 1056.699951171875 776.4000244140625 L 746.7000122070312 776.4000244140625 L 746.7000122070312 517.5999755859375 L 756.7000122070312 517.5999755859375 Z" fill="#916547"/>
			</g><path d="M 358.700012 517.599976 H 668.700012 V 776.399963 H 358.700012 V 517.599976 Z" fill="#70492E" transform="matrix(0.7343359589576721, 0, 0, 0.7343359589576721, 109.87083435058594, -125.72756958007812)"/><path d="M 358.70001220703125 517.5999755859375 L 668.7000122070312 517.5999755859375 L 668.7000122070312 776.4000244140625 L 658.7000122070312 776.4000244140625 L 658.7000122070312 526.7999877929688 L 358.70001220703125 526.7999877929688 Z" fill="#664128" transform="matrix(0.7343359589576721, 0, 0, 0.7343359589576721, 109.87083435058594, -125.72756958007812)"/><path d="M 368.70001220703125 767.2000122070312 L 668.7000122070312 767.2000122070312 L 668.7000122070312 776.4000244140625 L 358.70001220703125 776.4000244140625 L 358.70001220703125 517.5999755859375 L 368.70001220703125 517.5999755859375 Z" fill="#916547" transform="matrix(0.7343359589576721, 0, 0, 0.7343359589576721, 109.87083435058594, -125.72756958007812)"/><path d="M -29.299999 517.599976 H 280.700001 V 776.399963 H -29.299999 V 517.599976 Z" fill="#70492E" transform="matrix(0.7343359589576721, 0, 0, 0.7343359589576721, 109.87083435058594, -125.72756958007812)"/><path d="M -29.299999237060547 517.5999755859375 L 280.70001220703125 517.5999755859375 L 280.70001220703125 776.4000244140625 L 270.70001220703125 776.4000244140625 L 270.70001220703125 526.7999877929688 L -29.299999237060547 526.7999877929688 Z" fill="#664128" transform="matrix(0.7343359589576721, 0, 0, 0.7343359589576721, 109.87083435058594, -125.72756958007812)"/><path d="M -19.299999237060547 767.2000122070312 L 280.70001220703125 767.2000122070312 L 280.70001220703125 776.4000244140625 L -29.299999237060547 776.4000244140625 L -29.299999237060547 517.5999755859375 L -19.299999237060547 517.5999755859375 Z" fill="#916547" transform="matrix(0.7343359589576721, 0, 0, 0.7343359589576721, 109.87083435058594, -125.72756958007812)"/><path d="M 294.100006 586.400024 H 422.800003 V 606.100025 H 294.100006 V 586.400024 Z" fill="#F49160" transform="matrix(0.7343359589576721, 0, 0, 0.7343359589576721, 109.87083435058594, -125.72756958007812)"/><path d="M 415.6000061035156 881.0999755859375 L 429.79998779296875 881.0999755859375 L 408.6000061035156 606.0999755859375 L 394.5 606.0999755859375 Z" fill="#DCB273" transform="matrix(0.7343359589576721, 0, 0, 0.7343359589576721, 109.87083435058594, -125.72756958007812)"/><path d="M 301.20001220703125 881.0999755859375 L 287 881.0999755859375 L 308.20001220703125 606.0999755859375 L 322.29998779296875 606.0999755859375 Z" fill="#DCB273" transform="matrix(0.7343359589576721, 0, 0, 0.7343359589576721, 109.87083435058594, -125.72756958007812)"/><path d="M 306.299988 689.5 H 407.899986 V 703.3 H 306.299988 V 689.5 Z" fill="#DCB273" transform="matrix(0.7343359589576721, 0, 0, 0.7343359589576721, 109.87083435058594, -125.72756958007812)"/><path d="M 298.600006 807.700012 H 415.600006 V 821.500012 H 298.600006 V 807.700012 Z" fill="#DCB273" transform="matrix(0.7343359589576721, 0, 0, 0.7343359589576721, 109.87083435058594, -125.72756958007812)"/><path d="M 682.400024 586.400024 H 811.100021 V 606.100025 H 682.400024 V 586.400024 Z" fill="#F49160" transform="matrix(0.7343359589576721, 0, 0, 0.7343359589576721, 109.87083435058594, -125.72756958007812)"/><path d="M 804 881.0999755859375 L 818.2000122070312 881.0999755859375 L 797 606.0999755859375 L 782.7999877929688 606.0999755859375 Z" fill="#DCB273" transform="matrix(0.7343359589576721, 0, 0, 0.7343359589576721, 109.87083435058594, -125.72756958007812)"/><path d="M 689.5 881.0999755859375 L 675.2999877929688 881.0999755859375 L 696.5 606.0999755859375 L 710.7000122070312 606.0999755859375 Z" fill="#DCB273" transform="matrix(0.7343359589576721, 0, 0, 0.7343359589576721, 109.87083435058594, -125.72756958007812)"/><path d="M 694.599976 689.5 H 796.199974 V 703.3 H 694.599976 V 689.5 Z" fill="#DCB273" transform="matrix(0.7343359589576721, 0, 0, 0.7343359589576721, 109.87083435058594, -125.72756958007812)"/><path d="M 686.900024 807.700012 H 803.900024 V 821.500012 H 686.900024 V 807.700012 Z" fill="#DCB273" transform="matrix(0.7343359589576721, 0, 0, 0.7343359589576721, 109.87083435058594, -125.72756958007812)"/><path d="M 919.400024 586.400024 H 1048.100021 V 606.100025 H 919.400024 V 586.400024 Z" fill="#F49160" transform="matrix(0.7343359589576721, 0, 0, 0.7343359589576721, 109.87083435058594, -125.72756958007812)"/><path d="M 1040.9000244140625 881.0999755859375 L 1055.0999755859375 881.0999755859375 L 1033.9000244140625 606.0999755859375 L 1019.7000122070312 606.0999755859375 Z" fill="#DCB273" transform="matrix(0.7343359589576721, 0, 0, 0.7343359589576721, 109.87083435058594, -125.72756958007812)"/><path d="M 926.4000244140625 881.0999755859375 L 912.2999877929688 881.0999755859375 L 933.5 606.0999755859375 L 947.5999755859375 606.0999755859375 Z" fill="#DCB273" transform="matrix(0.7343359589576721, 0, 0, 0.7343359589576721, 109.87083435058594, -125.72756958007812)"/><path d="M 931.599976 689.5 H 1033.199974 V 703.3 H 931.599976 V 689.5 Z" fill="#DCB273" transform="matrix(0.7343359589576721, 0, 0, 0.7343359589576721, 109.87083435058594, -125.72756958007812)"/><path d="M 923.900024 807.700012 H 1040.900024 V 821.500012 H 923.900024 V 807.700012 Z" fill="#DCB273" transform="matrix(0.7343359589576721, 0, 0, 0.7343359589576721, 109.87083435058594, -125.72756958007812)"/><path fill="#2B2B2B" d="M239.7,613.4c0,0-13.1,5-18.7,14.9c-5.6,10-5.6,19.3-0.6,29.9c5,10.6,36.7,70.3,41.1,80.9&#10;&#9;&#9;&#9;c4.4,10.6,16.2,35.5,16.2,35.5s10.6-2.5,18.7-5.6c0,0,4.4,5-3.7,16.2c-8.1,11.2-28,23.7-29.3,32.4c-1.2,8.7,0,13.1,13.1,10&#10;&#9;&#9;&#9;c13.1-3.1,34.2-16.8,39.2-21.2c5-4.4,24.9-7.5,33-16.2c0,0-13.1-19.3-18-24.3c-5-5-10.6-8.7-10.6-8.7l5-8.1&#10;&#9;&#9;&#9;c0,0-12.4-13.1-15.6-18.7c-3.1-5.6,0-16.8,0-16.8s26.8-18.7,36.1-27.4c9.3-8.7,9.3-8.7,9.3-8.7s-8.7-14.3-22.4-21.2&#10;&#9;&#9;&#9;c-13.7-6.8-14.3-19.3-13.7-24.9c0.6-5.6,10.6-14.9,24.9-21.8c14.3-6.8,44.8-7.5,57.3-23c12.4-15.6,6.2-33,4.4-42.3&#10;&#9;&#9;&#9;c-1.9-9.3,3.2-18.7,3.2-18.7l6.7,1.2c0,0-1.2-13.1-4.4-28c-3.1-14.9-2.5-39.2-0.6-55.4c1.9-16.2,5.6-47.9,0-60.4&#10;&#9;&#9;&#9;c-5.6-12.4-26.1-33.6-33.6-42.3c-7.5-8.7,1.2-19.9,8.1-27.4c6.8-7.5,10-28,1.9-42.9c-8.1-14.9-40.5-19.3-49.8-14.3&#10;&#9;&#9;&#9;c-9.3,5-21.4,11-19.1,27.6c0,0,1.8,6.4-3.6,11.8c-5.5,5.5-9.1,7.3-9.6,10.5c-0.5,3.2,7.3,5,8.6,7.3c0,0-0.5,1.5-0.5,3.3&#10;&#9;&#9;&#9;c0,1.8,2.3,4,1.6,5.9c-0.8,1.8-2.3,4.9-1.7,7.9c0.7,3-0.2,8.5,5.4,9.4c5.7,0.9,11-0.3,14.9,4.8c3.9,5.1,5.7,12.3,6.3,19.2&#10;&#9;&#9;&#9;c0.6,6.9-0.6,18-6.9,26.4c-6.3,8.4-20.1,25.5-24,28.2c-3.9,2.7-7.8,0.6-18-7.8c-10.2-8.4-41-32.6-48.8-38&#10;&#9;&#9;&#9;c-7.8-5.4-17.1-11.4-24-14.7c-6.9-3.3-12.9-6.3-14.1-4.5c-1.2,1.8,3.3,3.6,6.3,5.4c3,1.8,8.4,6.9,9,7.8c0.6,0.9-4.2,4.5-5.1,9.3&#10;&#9;&#9;&#9;c-0.9,4.8-1.2,9-0.9,12.6c0.3,3.6,3.3,5.1,6.3,6c3,0.9,12.9-2.4,15.3-1.5c2.4,0.9,15,13.5,21.9,21.3c6.9,7.8,30.8,31.1,38.3,35.3&#10;&#9;&#9;&#9;c7.5,4.2,18,3,24.9-1.2c6.9-4.2,6.9-4.2,6.9-4.2s0.6,7.8-7.8,13.8c-8.4,6-18.3,7.5-28.7,9.9c-10.5,2.4-21,3.6-24.6,1.8&#10;&#9;&#9;&#9;c-3.6-1.8-6.3-8.4-9-9.6v-21.4h-27.1l1.2,23c0,0-3.7-0.6-5,6.2c-1.2,6.8,0,8.7,0,13.1c0,4.4,5.6,10,5.6,10l1.2,4.4&#10;&#9;&#9;&#9;c0,0,19.9,5,26.8,0c0,0,8.5-6.2,12.4-6.2c3.8,0,46.8-0.6,52.4-1.2c5.6-0.6,5,19.9,1.9,26.8c-3.1,6.8-9.3,13.1-24.9,13.7&#10;&#9;&#9;&#9;c-15.6,0.6-64.7,10.6-77.2,12.4c-12.4,1.9-26.8,14.3-26.1,27.4C198,581.1,239.7,613.4,239.7,613.4z M269.6,654.5&#10;&#9;&#9;&#9;c0.6-4.4,8.1-3.1,10.6,0c2.5,3.1,14.3,18.7,17.4,21.2c3.1,2.5,6.8,1.2,8.7,6.2c1.9,5-5.6,14.3-5.6,14.3&#10;&#9;&#9;&#9;c0.6-4.4-8.1-14.3-15.6-22.3C277.7,666,269,658.9,269.6,654.5z" transform="matrix(0.7343359589576721, 0, 0, 0.7343359589576721, 109.87083435058594, -125.72756958007812)"/><path fill="#2B2B2B" d="M94.7,318.7c-3.2,1.3-4.5,12.1,5.7,19.7s29.9,49,31.8,61c1.9,12.1-5.7,67.4-5.1,71.2&#10;&#9;&#9;&#9;c0.6,3.8,29.9,49,33.1,52.8c3.2,3.8,12.1,8.3,14,14.6c1.9,6.4-2.5,19.7-5.1,24.8c-2.5,5.1-12.7,4.5-17.8,4.5s-1.9-7-0.6-11.4&#10;&#9;&#9;&#9;c1.3-4.5-0.6-9.5-2.5-17.2s-22.9-38.2-24.2-28c-1.3,10.2-3.2,43.2,0.6,63.6c3.8,20.3,2.5,88.4-1.3,123.4&#10;&#9;&#9;&#9;c-3.8,35,1.3,66.1,3.2,87.1c1.9,21,1.9,33.1,8.9,50.9c7,17.8,32.4,26.1,43.9,31.2c11.4,5.1,5.7,9.5,5.7,9.5s-24.2,0-33.1,0&#10;&#9;&#9;&#9;c-8.9,0-18.4-8.3-18.4-8.3v8.3H80.9l-11-4.5l-4.5,4.5H39.4l1.3-31.2l-8-3.2c-4.2-36.9,4.9-110,12.5-140.5&#10;&#9;&#9;&#9;c7.6-30.5,5.1-111.9,0-127.8s-8.9-49,0.6-76.3s10.8-44.5,8.3-43.2c-2.5,1.3-12.7,1.9-14.6-7.6c-1.9-9.5-3.2-30.5-5.7-47.1&#10;&#9;&#9;&#9;c-2.5-16.5-0.6-63.6,8.3-74.4s17.2-26.1,17.2-30.5s-7.6-18.4-7.6-26.7s3.2-36.9,31.8-37.5c28.6-0.6,46.4,19.7,47.1,22.3&#10;&#9;&#9;&#9;c0.6,2.5-6.4,4.5-6.4,4.5s-3.5,17.1-0.9,25.1s4.4,11.1,4.4,11.1s-3.1,1.3-5.8,0.9s-1.8,7.1-2.2,9.3s-2.2,2.2-3.1,4.4&#10;&#9;&#9;&#9;s0,8.9-5.3,10.6S94.7,318.7,94.7,318.7z" transform="matrix(0.7343359589576721, 0, 0, 0.7343359589576721, 109.87083435058594, -125.72756958007812)"/><path fill="#2B2B2B" d="M719.2,300.7c0,0-8.1-10.7-4.6-23.3c3.6-12.7,22.3-21.3,35-22.8c12.7-1.5,23.9,4.1,30.5,12.2&#10;&#9;&#9;&#9;c6.6,8.1,8.1,17.8,8.1,17.8s20.8,2.5,27.4,12.7c6.6,10.2,1.5,34,0,36.5c-1.5,2.5-10.2-3.6-13.7-14.2s0-23-9.1-25.2&#10;&#9;&#9;&#9;c-9.1-2.2-6.6,11-9.1,17.1c-2.5,6.1-2.5,13.7,0.5,18.3c3,4.6,32,30.5,40.6,44.7c8.6,14.2,8.1,39.1,10.2,48.2&#10;&#9;&#9;&#9;c2,9.1,11.2,29.4,0,42.6c-11.2,13.2-19.3,19.8-19.3,19.8s12.7,40.1,14.2,52.8c1.5,12.7-7.6,42.1-27.4,48.2&#10;&#9;&#9;&#9;c-19.8,6.1-23.3,1.5-42.1,18.8c-18.8,17.3-31.5,27.4-33.5,34.5c-2,7.1,14.2,23.9,22.3,41.6c8.1,17.8,12.7,51.8,18.8,60.4&#10;&#9;&#9;&#9;c6.1,8.6,21.3,15.2,22.8,20.8c1.5,5.6-9.1,11.7-10.2,19.3c-1,7.6-6.6,32-20.3,41.1c-13.7,9.1-20.8,3-15.7-6.6&#10;&#9;&#9;&#9;c5.1-9.6,11.2-36.5,10.2-47.7s-13.2-32.5-18.8-46.7c-5.6-14.2-29.4-49.2-29.4-50.8c0-1.5-7.1,29.4-4.6,41.6&#10;&#9;&#9;&#9;c2.5,12.2,8.1,25.4,2,32c-6.1,6.6-13.7,2-22.3,10.7c-8.6,8.6-31,20.3-40.6,16.2s-5.1-8.6,4.1-17.3c9.1-8.6,22.3-16.2,28.4-40.1&#10;&#9;&#9;&#9;c6.1-23.9,2-77.7-4.1-91.9s-20.8-32-8.1-50.8c12.7-18.8,72.2-40.6,76.7-48.7c4.5-8.1,9.1-40.6,4-37.6c-5.1,3-12.2,10.2-10.2,3&#10;&#9;&#9;&#9;c2-7.1,8.6-8.6,8.6-8.6s-2.5-5.1-6.1-4.6s-14.2,8.1-14.7,5.1s16.3-10.7,18.3-12.2s3.5-9.1-3.6-18.3s-16.2-28.4-14.7-37.6&#10;&#9;&#9;&#9;c0,0-23.3,15.2-35.5,22.3c-12.2,7.1-26.4,12.7-26.9-8.6s20.8-42.6,23.9-49.7s9.1-21.3,10.7-24.4c1.5-3-1.5-19.8-0.5-24.4l26.9-0.5&#10;&#9;&#9;&#9;c0,0-0.5,13.2-2.5,19.8s4.6,6.6,2,10.2c-2.5,3.6-6.6,2-11.7,9.1c-5.1,7.1-10.2,18.8-13.7,22.3s2.5,13.7,21.8-11.2&#10;&#9;&#9;&#9;c19.3-24.9,36-22.3,36-22.3s0.5-10.7-7.1-12.2s-13.2,2-17.8-3c-4.6-5.1-8.6-12.2-7.6-20.8C718.7,309.8,719.2,300.7,719.2,300.7z" transform="matrix(0.7343359589576721, 0, 0, 0.7343359589576721, 109.87083435058594, -125.72756958007812)"/><path fill="#2B2B2B" d="M480.1,350.1c-8.3,7.3-13,26.9-10,48.9c3,21.9,27.4,68.3,28.4,80.8s-17,38.4-20.9,59.8&#10;&#9;&#9;&#9;c-4,21.4,4.5,38.4,6.5,50.4c2,12,0,91.3-9,114.2c-9,22.9-9,54.4-10.5,63.8c-1.5,9.5,6.5,32.9,3.5,49.4c-3,16.5-3.5,51.4-3.5,51.4&#10;&#9;&#9;&#9;s8,5.5,14.4,10s24.5,1.5,27.5,0c3-1.5,0-10,2-10c2,0,28.4-1.5,36.9,1.5c8.5,3,25.9-0.5,23.4-4c-2.5-3.5-15.5-3.5-25.9-7.5&#10;&#9;&#9;&#9;c-10.5-4-25.4-12-26.9-19.9c-1.5-8,7.5-74.8,7.5-74.8l9.5-4.5c4-17,23.4-121.7,32.4-144.1c9-22.4,6-77.8,6-77.8s12.5-5,11.5-7&#10;&#9;&#9;&#9;c-1-2-3.5-20.4-0.5-30.9c3-10.5,3.5-33.9,4.5-35.9c1-2,26.9-36.9,32.4-42.4c5.5-5.5,18-14,22.4-19c4.5-5-2.5-17-3-18.5&#10;&#9;&#9;&#9;c-0.5-1.5-5.5-9.5-5.5-20.9c0-11.5-4.4-26.9-4.4-26.9l-27.9,13c0,0,7.5,15,14,21.4c6.5,6.5,22.4,13.5,17.5,14.5s-17.5,6.5-21.9,13&#10;&#9;&#9;&#9;c-4.5,6.5-26.9,32.9-26.9,32.9s0.5-12,2-17c1.5-5-4-24.4-16.6-37.4c-12.6-13-29.3-32.4-28.8-38.4s9.5,1,18.5,0s5.5-10,4.5-12.4&#10;&#9;&#9;&#9;s2-12.1,4.8-15.1c2.8-3-0.3-8-3.8-12.5c-3.5-4.5,1.5-7.5,3.5-12.5s-7.7-27.3-7.7-27.3c-11.1-14.8-31.4-13.8-51.7-11.1&#10;&#9;&#9;&#9;c-20.3,2.8-31.4,15.7-28.6,33.2s18.4,45.2,18.4,45.2S489.2,342.1,480.1,350.1z" transform="matrix(0.7343359589576721, 0, 0, 0.7343359589576721, 109.87083435058594, -125.72756958007812)"/><path fill="#2B2B2B" d="M1030.9,331.3c-2.6,3.2-3.7,5.7-11.5,7s-6.1,3.7-6.1,3.7s4.1,1.6,10.5,4.9c6.4,3.3,12.8,8.2,20.6,14.3&#10;&#9;&#9;&#9;s28.2,16.4,40.1,22.5s18,6.5,18.8,3.3c0.8-3.3-4.5-11.5-4.5-11.5h-22.9l-8.6-52l31.1-1.2l-0.8,13.9c0,0,9.4,7.8,16,15.1&#10;&#9;&#9;&#9;s14.3,26.6,16.4,35.2c2,8.6,0.8,41.3-1.2,47.9c-2,6.5-22.9,2.9-28.2,1.6c-5.3-1.2-35.2,3.7-35.2,3.7s0,33.6,2,49.5&#10;&#9;&#9;&#9;c2,16,14.3,36.8,14.3,36.8s4.1,8.2,9.4,14.7c5.3,6.5,31.9,48.7,43,64.2c11,15.6,9.8,38.1,6.1,63s-1.6,108.9-1.6,108.9l-11.9-2&#10;&#9;&#9;&#9;l1.2,4.1c0,0,16.4,12.7,30.3,20.5s5.7,14.7,5.7,14.7s-38.1-0.8-43.4-2.9c-5.3-2-38.5-0.4-38.5-0.4s0.4-10.2,0.8-19.6&#10;&#9;&#9;&#9;c0.4-9.4,4.5-16,4.5-16l-7.4-4.1c0,0-2.9-32.3-1.2-52.4s3.3-64.2,2-67.1c-1.2-2.9-27-25.8-24.1-22.9c2.9,2.9,10.2,23.7,11.5,40.9&#10;&#9;&#9;&#9;c1.2,17.2-2.9,45.8-3.7,61.4c-0.8,15.6,3.3,74.9,4.5,76.1s-4.9,1.6-4.9,1.6s-3.3,4.9,0.8,12.3c4.1,7.4,23.3,22.5,28.6,29.5&#10;&#9;&#9;&#9;c5.3,7,2.9,14.7-4.9,16.8s-29.5-1.2-39.3-8.2c-9.8-7-22.1-20.1-23.7-26.2s-0.8-22.9-0.8-22.9h-10.6c0,0-7.8-3.3-7.4-9&#10;&#9;&#9;&#9;c0.4-5.7-7-81.8-3.3-96.6c3.7-14.7,2.9-31.9,2.9-31.9c-9.4-39.3-56.1-68.3-68.7-88s-11-39.3-10.6-52c0.4-12.7,3.3-43.4-1.2-49.1&#10;&#9;&#9;&#9;c-4.5-5.7-33.1-10.2-40.1-16.8s-4.5-22.1,0-30.3s11-56.1,27.8-76.5s22.5-16.4,36.8-25c14.3-8.6,15.6-14.7,18-20.9&#10;&#9;&#9;&#9;s-5.3-14.3-4.1-25.4c1.2-11,7-27.8,19.7-33.1c12.7-5.3,30.3-4.9,45,6.1c14.7,11,13.9,24.1,12.3,31.1s-2,12.7-2,12.7s0.2,3,1.7,5.9&#10;&#9;&#9;&#9;c1.5,2.9,1.2,2.9-1.5,4c-2.7,1.2-3.3,1.5-4,3.7s0.8,4.2,0,6S1033.6,328,1030.9,331.3z" transform="matrix(0.7343359589576721, 0, 0, 0.7343359589576721, 109.87083435058594, -125.72756958007812)"/><path fill="#2B2B2B" d="M1174.5,384c0.5-1.5,5.5-9.5,5.5-20.9c0-11.5,4.4-26.9,4.4-26.9l27.9,13c0,0-7.5,15-14,21.4&#10;&#9;&#9;&#9;c-6.5,6.5-22.4,13.5-17.5,14.5c5,1,17.5,6.5,21.9,13c4.5,6.5,26.9,32.9,26.9,32.9s-0.5-12-2-17s4-24.4,16.6-37.4&#10;&#9;&#9;&#9;c12.6-13,29.3-32.4,28.8-38.4c-0.5-6-9.5,1-18.5,0c-9-1-5.5-10-4.5-12.4s-2-12.1-4.8-15.1s0.3-8,3.8-12.5&#10;&#9;&#9;&#9;c3.5-4.5-1.5-7.5-3.5-12.5c-2-5,7.7-27.3,7.7-27.3c11.1-14.8,31.4-13.8,51.7-11.1c16.8,2.3,27.3,11.6,28.8,24.7&#10;&#9;&#9;&#9;c2-0.7,8.7-2.7,13.1,0.2c5.3,3.5,12.3,7.7,13.4,17.9c1.1,10.2-2.5,21.4-1.4,32.3c1.1,10.9,4.2,24.6,4.2,24.6s-17.6-5.3-21.1-19&#10;&#9;&#9;&#9;s-0.4-34.4-6-38.3c-1.5-1-2.9-1.5-4.2-1.6c-5,16.9-16.7,37.6-16.7,37.6s8.8,16.3,17.8,24.3c8.3,7.3,13,26.9,10,48.9&#10;&#9;&#9;&#9;c-3,21.9-27.4,68.3-28.4,80.8c-1,12.5,17,38.4,20.9,59.8c4,21.4-4.5,38.4-6.5,50.4c-2,12,0,91.3,9,114.2s9,54.4,10.5,63.8&#10;&#9;&#9;&#9;s-6.5,32.9-3.5,49.4c3,16.5,3.5,51.4,3.5,51.4s-8,5.5-14.4,10c-6.4,4.5-24.5,1.5-27.5,0c-3-1.5,0-10-2-10c-2,0-28.4-1.5-36.9,1.5&#10;&#9;&#9;&#9;c-8.5,3-25.9-0.5-23.4-4c2.5-3.5,15.5-3.5,25.9-7.5c10.5-4,25.4-12,26.9-19.9c1.5-8-7.5-74.8-7.5-74.8l-9.5-4.5&#10;&#9;&#9;&#9;c-4-17-23.4-121.7-32.4-144.1s-6-77.8-6-77.8s-12.5-5-11.5-7c1-2,3.5-20.4,0.5-30.9c-3-10.5-3.5-33.9-4.5-35.9&#10;&#9;&#9;&#9;s-26.9-36.9-32.4-42.4c-5.5-5.5-18-14-22.4-19C1167,397.5,1174,385.5,1174.5,384z" transform="matrix(0.7343359589576721, 0, 0, 0.7343359589576721, 109.87083435058594, -125.72756958007812)"/>
</svg>